<svg viewBox="0 0 97 96" fill="none" xmlns="http://www.w3.org/2000/svg" class="" >
<path d="M0.59375 11.9792C0.59375 5.36327 5.96634 0 12.5938 0H36.5938C43.2211 0 48.5938 5.36327 48.5938 11.9792V35.5043C48.5942 35.6481 48.5945 35.7926 48.5945 35.9375C48.5945 42.544 53.9518 47.9013 60.5659 47.9167H60.5938H84.5938C91.2211 47.9167 96.5938 53.28 96.5938 59.8958V83.8542C96.5938 90.47 91.2211 95.8333 84.5938 95.8333H60.5938C53.9664 95.8333 48.5938 90.47 48.5938 83.8542V59.8958C48.5938 59.8625 48.594 59.8295 48.5942 59.7962C48.5405 53.2263 43.1887 47.9167 36.5945 47.9167C36.5635 47.9167 36.5326 47.9167 36.5016 47.9167H12.5938C5.96634 47.9167 0.59375 42.5534 0.59375 35.9375L0.59375 11.9792Z" fill="currentColor"/>
</svg>
